<?xml version="1.0" encoding="UTF-8"?>
<!DOCTYPE svg PUBLIC "-//W3C//DTD SVG 1.1//EN" "http://www.w3.org/Graphics/SVG/1.1/DTD/svg11.dtd">
<!-- Creator: CorelDRAW 2021 (64-Bit) -->
<svg xmlns="http://www.w3.org/2000/svg" xml:space="preserve" width="100mm" height="100mm" version="1.1" style="shape-rendering:geometricPrecision; text-rendering:geometricPrecision; image-rendering:optimizeQuality; fill-rule:evenodd; clip-rule:evenodd"
viewBox="0 0 10000 10000"
 xmlns:xlink="http://www.w3.org/1999/xlink"
 xmlns:xodm="http://www.corel.com/coreldraw/odm/2003">
 <defs>
  <style type="text/css">
   <![CDATA[
    .fil2 {fill:#32C864;fill-rule:nonzero}
    .fil1 {fill:white;fill-rule:nonzero}
    .fil0 {fill:#3D4D59;fill-rule:nonzero}
   ]]>
  </style>
 </defs>
 <g id="Capa_x0020_1">
  <metadata id="CorelCorpID_0Corel-Layer"/>
  <path class="fil0" d="M5560.5 5883.94c-1.56,0 -3.17,0 -4.89,0 -0.16,0 -0.3,0 -0.46,0 1.88,0 3.69,0 5.35,0z"/>
  <path class="fil0" d="M2901.99 2303.47c26.66,-57.5 16.79,-128.47 -29.49,-216.51l1511.67 0 4.12 7.97c91.83,176.59 264.09,262.42 526.71,262.42l14.11 0 611.56 750.15c36.44,44.7 10.64,121.1 -40.92,121.1l-924.13 0 -614.84 753.94 -1265.32 -1551.92c110.32,-24.09 178,-65.72 206.53,-127.15z"/>
  <path class="fil0" d="M4665.98 4704.51l1008.29 0 575.13 -706.45 1223.29 1541.03c-113.7,23.84 -183.2,65.87 -212.17,128.35 -27.43,59.17 -16.55,132.44 33.3,224.07l-1511.55 0 -8.07 -15.53c-91.82,-176.54 -264.07,-262.41 -526.69,-262.41l-3.63 0 -616.81 -793.96c-34.63,-42.52 -10.08,-115.1 38.91,-115.1z"/>
  <polygon class="fil0" points="3082.53,2915.43 4901.41,5149.61 7198.4,5149.61 5203.44,2703.3 3225.3,2703.3 "/>
  <path class="fil1" d="M4631.22 3926.46c0,51.16 -41.47,92.63 -92.63,92.63 -51.14,0 -92.62,-41.47 -92.62,-92.63 0,-51.14 41.48,-92.63 92.62,-92.63 51.16,0 92.63,41.49 92.63,92.63z"/>
  <path class="fil1" d="M5179.88 3926.46c0,51.16 -41.48,92.63 -92.63,92.63 -51.15,0 -92.64,-41.47 -92.64,-92.63 0,-51.14 41.49,-92.63 92.64,-92.63 51.15,0 92.63,41.49 92.63,92.63z"/>
  <path class="fil1" d="M5728.53 3926.46c0,51.16 -41.48,92.63 -92.63,92.63 -51.16,0 -92.63,-41.47 -92.63,-92.63 0,-51.14 41.47,-92.63 92.63,-92.63 51.15,0 92.63,41.49 92.63,92.63z"/>
  <path class="fil0" d="M2403.07 7136.57l0 -214.24 163.99 0 0 -309.79 250.47 0 0 309.79 289.69 0 0 214.24 -283.69 0 0 397.33c0,100.58 56.35,144.84 142.83,144.84 48.29,0 109.66,-11.1 163.99,-33.17l24.1 214.24c-59.37,29.13 -154.87,48.29 -233.35,48.29 -212.27,0 -355.1,-109.67 -355.1,-337.02l0 -434.51 -162.93 0z"/>
  <path class="fil0" d="M3247.3 6922.31l258.49 0 0 965.6 -258.49 0 0 -965.6zm127.71 -458.67c87.6,0 148.92,60.39 148.92,148.89 0,87.48 -61.32,147.91 -148.92,147.91 -87.49,0 -147.82,-60.43 -147.82,-147.91 0,-87.5 60.33,-148.89 147.82,-148.89z"/>
  <path class="fil0" d="M3644.83 7403.13c0,-282.63 228.31,-503.93 515.01,-503.93 181.08,0 360.04,94.54 448.58,275.63l-196.08 124.67c-56.4,-111.63 -154.97,-162.93 -248.46,-162.93 -154.93,0 -262.57,118.68 -262.57,271.58 0,149.83 110.61,266.56 258.53,266.56 104.58,0 192.07,-49.28 257.48,-166.97l186.12 130.79c-88.55,175.98 -268.62,269.57 -449.65,269.57 -289.68,0 -508.96,-223.32 -508.96,-504.97z"/>
  <polygon class="fil0" points="4984,6471.71 4984,7282.45 5336.03,6922.31 5679.03,6922.31 5256.6,7333.7 5688.1,7886.95 5369.28,7886.95 5083.58,7500.71 4984,7600.3 4984,7886.95 4728.54,7886.95 4728.54,6471.71 "/>
  <path class="fil0" d="M6360.31 7309.57c-13.05,-107.6 -101.6,-190.06 -224.27,-190.06 -127.74,0 -224.31,80.45 -238.41,190.06l462.68 0zm-724.2 94.58c1,-294.77 210.26,-501.94 496.86,-501.94 265.6,0 467.79,178.05 467.79,470.76 0,35.17 -3.03,71.4 -9.07,109.66l-698.11 0c19.16,113.6 134.82,193.11 257.53,193.11 95.56,0 178.06,-44.3 240.4,-135.81l183.05 136.77c-90.52,150.9 -259.45,232.38 -429.49,232.38 -309.79,0 -508.96,-223.31 -508.96,-504.93z"/>
  <polygon class="fil0" points="6933.09,7395.1 6581.07,6922.33 6877.76,6922.33 7087.96,7220.07 7297.2,6922.33 7592.93,6922.33 7242.83,7395.1 7600.95,7887.93 7310.26,7887.93 7087.96,7567.05 6867.67,7887.93 6578,7887.93 "/>
  <path class="fil2" d="M4652.78 5883.94c1.57,0 3.19,0 4.89,0 0.15,0 0.31,0 0.45,0 -1.85,0 -3.67,0 -5.34,0z"/>
  <path class="fil1" d="M7311.3 2303.47c-26.67,-57.5 -16.78,-128.47 29.47,-216.51l-1511.64 0 -4.15 7.97c-91.81,176.59 -264.07,262.42 -526.7,262.42l-14.1 0 -611.57 750.15c-36.43,44.7 -10.63,121.1 40.93,121.1l924.13 0 614.83 753.94 1265.32 -1551.92c-110.32,-24.09 -178,-65.72 -206.52,-127.15z"/>
  <path class="fil1" d="M5547.31 4704.51l-1008.29 0 -575.13 -706.45 -1223.29 1541.03c113.7,23.84 183.19,65.87 212.18,128.35 27.41,59.17 16.52,132.44 -33.32,224.07l1511.56 0 8.06 -15.53c91.83,-176.54 264.09,-262.41 526.7,-262.41l3.63 0 616.8 -793.96c34.63,-42.52 10.09,-115.1 -38.9,-115.1z"/>
 </g>
</svg>
