<?xml version="1.0" encoding="UTF-8"?>
<!DOCTYPE svg PUBLIC "-//W3C//DTD SVG 1.1//EN" "http://www.w3.org/Graphics/SVG/1.1/DTD/svg11.dtd">
<!-- Creator: CorelDRAW 2021 (64-Bit) -->
<svg xmlns="http://www.w3.org/2000/svg" xml:space="preserve" width="100mm" height="100mm" version="1.1" style="shape-rendering:geometricPrecision; text-rendering:geometricPrecision; image-rendering:optimizeQuality; fill-rule:evenodd; clip-rule:evenodd"
viewBox="0 0 10000 10000"
 xmlns:xlink="http://www.w3.org/1999/xlink"
 xmlns:xodm="http://www.corel.com/coreldraw/odm/2003">
 <defs>
  <style type="text/css">
   <![CDATA[
    .fil2 {fill:#32C864;fill-rule:nonzero}
    .fil1 {fill:white;fill-rule:nonzero}
    .fil0 {fill:#3D4D59;fill-rule:nonzero}
   ]]>
  </style>
 </defs>
 <g id="Capa_x0020_1">
  <metadata id="CorelCorpID_0Corel-Layer"/>
  <path class="fil0" d="M5560.47 5883.96c-1.56,0 -3.17,0 -4.88,0 -0.16,0 -0.3,0 -0.46,0 1.87,0 3.68,0 5.34,0z"/>
  <path class="fil1" d="M2901.97 2303.47c26.66,-57.5 16.79,-128.45 -29.48,-216.5l1511.65 0 4.13 7.96c91.83,176.59 264.09,262.42 526.7,262.42l14.12 0 611.55 750.15c36.45,44.7 10.65,121.1 -40.91,121.1l-924.13 0 -614.84 753.94 -1265.31 -1551.91c110.31,-24.1 177.99,-65.73 206.52,-127.16z"/>
  <path class="fil1" d="M4665.94 4704.53l1008.3 0 575.13 -706.47 1223.27 1541.04c-113.69,23.83 -183.19,65.86 -212.16,128.36 -27.42,59.15 -16.54,132.44 33.3,224.05l-1511.54 0 -8.07 -15.51c-91.81,-176.54 -264.07,-262.41 -526.68,-262.41l-3.63 0 -616.82 -793.96c-34.63,-42.53 -10.08,-115.1 38.9,-115.1z"/>
  <polygon class="fil1" points="3082.52,2915.44 4901.39,5149.63 7198.37,5149.63 5203.41,2703.32 3225.29,2703.32 "/>
  <path class="fil0" d="M4631.2 3926.47c0,51.16 -41.47,92.63 -92.63,92.63 -51.14,0 -92.63,-41.47 -92.63,-92.63 0,-51.15 41.49,-92.63 92.63,-92.63 51.16,0 92.63,41.48 92.63,92.63z"/>
  <path class="fil0" d="M5179.86 3926.47c0,51.16 -41.49,92.63 -92.63,92.63 -51.16,0 -92.64,-41.47 -92.64,-92.63 0,-51.15 41.48,-92.63 92.64,-92.63 51.14,0 92.63,41.48 92.63,92.63z"/>
  <path class="fil0" d="M5728.5 3926.47c0,51.16 -41.47,92.63 -92.63,92.63 -51.16,0 -92.63,-41.47 -92.63,-92.63 0,-51.15 41.47,-92.63 92.63,-92.63 51.16,0 92.63,41.48 92.63,92.63z"/>
  <path class="fil2" d="M2403.06 7136.56l0 -214.23 163.99 0 0 -309.79 250.47 0 0 309.79 289.68 0 0 214.23 -283.68 0 0 397.32c0,100.6 56.34,144.85 142.82,144.85 48.29,0 109.66,-11.09 163.99,-33.16l24.1 214.24c-59.37,29.13 -154.87,48.27 -233.34,48.27 -212.27,0 -355.1,-109.65 -355.1,-337l0 -434.52 -162.93 0z"/>
  <path class="fil2" d="M3247.33 6922.31l258.49 0 0 965.6 -258.49 0 0 -965.6zm127.7 -458.67c87.54,0 148.87,60.39 148.87,148.89 0,87.48 -61.33,147.85 -148.87,147.85 -87.54,0 -147.86,-60.37 -147.86,-147.85 0,-87.55 60.32,-148.89 147.86,-148.89z"/>
  <path class="fil2" d="M3644.82 7403.11c0,-282.63 228.3,-503.91 515,-503.91 181.08,0 360.04,94.54 448.58,275.61l-196.09 124.69c-56.4,-111.63 -154.97,-162.94 -248.45,-162.94 -154.93,0 -262.57,118.68 -262.57,271.59 0,149.83 110.61,266.55 258.53,266.55 104.58,0 192.07,-49.29 257.48,-166.96l186.06 130.77c-88.49,175.99 -268.56,269.57 -449.59,269.57 -289.68,0 -508.95,-223.3 -508.95,-504.97z"/>
  <polygon class="fil2" points="4983.97,6471.71 4983.97,7282.44 5336,6922.3 5679,6922.3 5256.57,7333.7 5688.07,7886.95 5369.26,7886.95 5083.56,7500.71 4983.97,7600.3 4983.97,7886.95 4728.51,7886.95 4728.51,6471.71 "/>
  <path class="fil2" d="M6360.28 7309.55c-13.05,-107.59 -101.6,-190.04 -224.27,-190.04 -127.75,0 -224.31,80.43 -238.43,190.04l462.7 0zm-724.19 94.6c1,-294.77 210.25,-501.95 496.85,-501.95 265.6,0 467.79,178.04 467.79,470.75 0,35.18 -3.03,71.42 -9.07,109.66l-698.1 0c19.15,113.6 134.81,193.13 257.52,193.13 95.56,0 178.06,-44.3 240.4,-135.83l183.05 136.79c-90.52,150.88 -259.45,232.37 -429.49,232.37 -309.78,0 -508.95,-223.3 -508.95,-504.92z"/>
  <polygon class="fil2" points="6933.06,7395.08 6581.04,6922.31 6877.73,6922.31 7087.93,7220.06 7297.17,6922.31 7592.9,6922.31 7242.8,7395.08 7600.91,7887.91 7310.23,7887.91 7087.93,7567.04 6867.64,7887.91 6577.97,7887.91 "/>
  <path class="fil2" d="M4652.76 5883.96c1.57,0 3.18,0 4.88,0 0.16,0 0.32,0 0.46,0 -1.86,0 -3.67,0 -5.34,0z"/>
  <path class="fil2" d="M7311.25 2303.47c-26.65,-57.5 -16.77,-128.45 29.49,-216.5l-1511.64 0 -4.14 7.96c-91.82,176.59 -264.07,262.42 -526.7,262.42l-14.1 0 -611.57 750.15c-36.43,44.7 -10.63,121.1 40.92,121.1l924.13 0 614.83 753.94 1265.31 -1551.91c-110.31,-24.1 -178,-65.73 -206.53,-127.16z"/>
  <path class="fil2" d="M5547.29 4704.53l-1008.29 0 -575.13 -706.47 -1223.28 1541.04c113.7,23.83 183.18,65.86 212.17,128.36 27.41,59.15 16.53,132.44 -33.32,224.05l1511.56 0 8.06 -15.51c91.83,-176.54 264.08,-262.41 526.7,-262.41l3.63 0 616.8 -793.96c34.62,-42.53 10.08,-115.1 -38.9,-115.1z"/>
 </g>
</svg>
