<?xml version="1.0" encoding="UTF-8"?>
<!DOCTYPE svg PUBLIC "-//W3C//DTD SVG 1.1//EN" "http://www.w3.org/Graphics/SVG/1.1/DTD/svg11.dtd">
<!-- Creator: CorelDRAW 2021 (64-Bit) -->
<svg xmlns="http://www.w3.org/2000/svg" xml:space="preserve" width="100mm" height="100mm" version="1.1" style="shape-rendering:geometricPrecision; text-rendering:geometricPrecision; image-rendering:optimizeQuality; fill-rule:evenodd; clip-rule:evenodd"
viewBox="0 0 10000 10000"
 xmlns:xlink="http://www.w3.org/1999/xlink"
 xmlns:xodm="http://www.corel.com/coreldraw/odm/2003">
 <defs>
  <style type="text/css">
   <![CDATA[
    .fil3 {fill:none}
    .fil2 {fill:#32C864;fill-rule:nonzero}
    .fil1 {fill:white;fill-rule:nonzero}
    .fil0 {fill:#3D4D59;fill-rule:nonzero}
   ]]>
  </style>
 </defs>
 <g id="Capa_x0020_1">
  <metadata id="CorelCorpID_0Corel-Layer"/>
  <path class="fil0" d="M1524.81 8292.2l0 619.2c0,324.58 203.07,480.22 506.01,480.22 111.52,0 248.01,-26.64 332.9,-68.25l-34.95 -305.44c-77.4,31.63 -164.79,47.44 -233.86,47.44 -123.18,0 -203.08,-63.25 -203.08,-206.4l0 -566.77 404.48 0 0 -305.43 -412.8 0 0 -441.1 -357.04 0 0 441.1 -233.86 0 0 305.43 232.2 0zm942.02 -746.53c0,124.84 85.72,210.56 210.56,210.56 124.84,0 212.23,-85.72 212.23,-210.56 0,-126.5 -87.39,-212.23 -212.23,-212.23 -124.84,0 -210.56,87.39 -210.56,212.23zm396.99 1817.65l0 -1376.55 -368.69 0 0 1376.55 368.69 0zm923.71 28.3c258,0 514.34,-133.16 640.84,-383.67l-265.49 -186.43c-93.21,167.28 -218.05,238.03 -367.03,238.03 -210.56,0 -368.69,-166.46 -368.69,-380.35 0,-217.22 153.97,-387 374.52,-387 133.16,0 273.81,73.24 353.71,232.2l279.64 -177.27c-125.67,-258 -381.18,-392.82 -639.18,-392.82 -408.64,0 -734.05,315.42 -734.05,718.24 0,401.14 312.93,719.07 725.73,719.07zm818.02 -2046.53l0 2016.57 364.53 0 0 -408.64 142.31 -141.49 406.98 550.13 454.41 0 -615.04 -788.15 601.72 -586.74 -488.53 0 -501.85 513.5 0 -1155.18 -364.53 0zm2018.4 2048.19c242.19,0 482.71,-115.68 611.71,-331.24l-260.49 -194.75c-89.05,130.67 -206.4,193.92 -342.89,193.92 -174.78,0 -339.56,-114.02 -367.03,-275.48l994.55 0c9.15,-54.93 13.32,-106.53 13.32,-156.46 0,-416.96 -287.97,-670.8 -666.64,-670.8 -408.64,0 -706.59,295.45 -708.25,714.91 0,401.98 283.8,719.9 725.72,719.9zm-352.87 -853.9c19.97,-156.46 157.29,-271.31 339.56,-271.31 174.77,0 301.28,117.35 319.59,271.31l-659.15 0zm970.87 823.94l412.8 0 313.77 -456.91 317.09 456.91 414.46 0 -511.01 -702.43 499.36 -674.12 -421.96 0 -297.94 424.45 -299.62 -424.45 -422.78 0 501.85 674.12 -506.02 702.43z"/>
  <path class="fil0" d="M5791.27 6010.95c-2.22,0 -4.51,0 -6.95,0 -0.21,0 -0.46,0 -0.67,0 2.65,0 5.26,0 7.62,0z"/>
  <path class="fil0" d="M2003.3 909.3c37.99,-81.92 23.95,-183.06 -42.02,-308.47l2153.89 0 5.89 11.32c130.81,251.57 376.31,373.88 750.5,373.88l20.03 0 871.44 1068.91c51.93,63.68 15.17,172.58 -58.28,172.58l-1316.82 -0.03 -876.01 1074.24 -1802.91 -2211.28c157.23,-34.33 253.68,-93.59 294.29,-181.15z"/>
  <path class="fil0" d="M4516.71 4330.44l1436.69 0 819.47 -1006.62 1743 2195.73c-162.03,34.04 -261.02,93.87 -302.33,182.91 -39.09,84.28 -23.53,188.74 47.45,319.26l-2153.71 0 -11.5 -22.11c-130.81,-251.57 -376.31,-373.88 -750.5,-373.88l-5.11 0 -878.91 -1131.29c-49.32,-60.57 -14.33,-164 55.45,-164z"/>
  <polygon class="fil0" points="2260.55,1781.25 4852.2,4964.65 8125.03,4964.65 5282.52,1479.03 2463.96,1479.03 "/>
  <path class="fil1" d="M4467.21 3221.83c0,72.88 -59.09,131.97 -131.98,131.97 -72.88,0 -131.97,-59.09 -131.97,-131.97 0,-72.88 59.09,-131.97 131.97,-131.97 72.89,0 131.98,59.09 131.98,131.97z"/>
  <path class="fil1" d="M5248.95 3221.83c0,72.88 -59.09,131.97 -131.98,131.97 -72.88,0 -131.97,-59.09 -131.97,-131.97 0,-72.88 59.09,-131.97 131.97,-131.97 72.89,0 131.98,59.09 131.98,131.97z"/>
  <path class="fil1" d="M6030.69 3221.83c0,72.88 -59.09,131.97 -131.97,131.97 -72.89,0 -131.98,-59.09 -131.98,-131.97 0,-72.88 59.09,-131.97 131.98,-131.97 72.88,0 131.97,59.09 131.97,131.97z"/>
  <path class="fil2" d="M4497.92 6010.95c2.23,0 4.52,0 6.95,0 0.21,0 0.46,0 0.67,0 -2.64,0 -5.25,0 -7.62,0z"/>
  <path class="fil2" d="M8285.9 909.3c-38,-81.92 -23.95,-183.06 42.01,-308.47l-2153.88 0 -5.89 11.32c-130.81,251.57 -376.31,373.88 -750.5,373.88l-20.04 0 -871.43 1068.91c-51.93,63.68 -15.17,172.58 58.28,172.58l1316.81 -0.03 876.02 1074.24 1802.91 -2211.28c-157.24,-34.33 -253.69,-93.59 -294.29,-181.15z"/>
  <path class="fil2" d="M5772.48 4330.44l-1436.68 0 -819.47 -1006.62 -1743.01 2195.73c162.04,34.04 261.03,93.87 302.34,182.91 39.08,84.28 23.53,188.74 -47.45,319.26l2153.71 0 11.5 -22.11c130.81,-251.57 376.3,-373.88 750.5,-373.88l5.11 0 878.91 -1131.29c49.32,-60.57 14.32,-164 -55.46,-164z"/>
  <rect class="fil3" x="406.27" y="-282.46" width="9173.19" height="10565.98"/>
 </g>
</svg>
